#!OML:ASF I:\Actors\actors\Patient Classification 1\Patient 1\Session 1\Subject1.ASF
:FULLY-SPECIFIED
:DEGREES
739
root 0.743484 17.5842 9.92335 11.6052 0.508872 -9.56247
lowerback 4.25271 3.91151 11.8895
upperback -12.6649 6.55851 -2.74475
thorax -15.0929 1.44948 -10.8261
lowerneck -11.6833 -4.46202 1.41595
upperneck -32.7366 -3.56349 9.48757
head -8.25134 -2.38027 3.1147
rclavicle 1.19271e-014 -1.74931e-014
rhumerus 60.1459 -23.9262 -27.7235
rradius 133.853
rwrist -8.05042
rhand -3.35918 -47.9483
rfingers 7.12502
rthumb 22.3692 -436.673
lclavicle 1.19271e-014 -1.74931e-014
lhumerus -73.3119 46.2029 15.1489
lradius 27.5006
lwrist -8.16107
lhand -36.294 -31.8628
lfingers 7.12502
lthumb -9.39349 -2.09208
rfemur -2.07303 28.6428 26.7417
rtibia 0.282506
rfoot -15.0475 -31.4088
rtoes 8.7233
lfemur 6.89642 -50.6337 -13.1528
ltibia -5.46224
lfoot -31.6147 56.7484
ltoes 17.9125
740
root 0.74137 17.5839 9.9287 11.6199 0.515304 -9.59835
lowerback 4.36276 3.87885 11.9245
upperback -12.7869 6.54182 -2.76147
thorax -15.3225 1.40628 -10.8898
lowerneck -11.6284 -4.51969 1.30276
upperneck -32.7865 -3.60289 9.62163
head -8.26791 -2.39737 3.18466
rclavicle -2.38542e-015 1.11319e-014
rhumerus 60.0853 -23.9247 -27.7743
rradius 133.923
rwrist -7.99097
rhand -3.37813 -48.0779
rfingers 7.12502
rthumb 22.351 -436.805
lclavicle -2.38542e-015 1.11319e-014
lhumerus -73.2566 46.0282 15.2362
lradius 27.5509
lwrist -8.40439
lhand -36.936 -31.0374
lfingers 7.12502
lthumb -10.0129 -1.29557
rfemur -2.05229 28.7642 26.8023
rtibia 0.276737
rfoot -15.0904 -31.5149
rtoes 8.74279
lfemur 6.88055 -50.6459 -13.0926
ltibia -5.44087
lfoot -31.8879 56.6774
ltoes 18.2108
741
root 0.739968 17.5838 9.93356 11.6142 0.537693 -9.66114
lowerback 4.48768 3.84413 11.9734
upperback -12.8716 6.52764 -2.74361
thorax -15.5171 1.37047 -10.9192
lowerneck -11.6767 -4.54179 1.10515
upperneck -32.837 -3.57895 9.80831
head -8.26659 -2.37628 3.28381
rclavicle 9.93923e-015 -1.27222e-014
rhumerus 60.057 -23.9275 -27.7533
rradius 133.973
rwrist -7.86818
rhand -3.45001 -47.9886
rfingers 7.12502
rthumb 22.282 -436.724
lclavicle 9.93923e-015 -1.27222e-014
lhumerus -73.5716 46.0938 14.7579
lradius 27.5975
lwrist -8.11575
lhand -36.4985 -31.8968
lfingers 7.12502
lthumb -9.59077 -2.13512
rfemur -1.99922 28.7953 26.9073
rtibia 0.250199
rfoot -15.11 -31.5502
rtoes 8.68973
lfemur 6.84992 -50.4546 -12.9661
ltibia -5.46684
lfoot -31.6428 56.5701
ltoes 17.8979
742
root 0.739735 17.5843 9.93885 11.5874 0.581236 -9.71758
lowerback 4.59821 3.82465 12.0445
upperback -12.9456 6.53396 -2.7326
thorax -15.6811 1.34459 -10.9686
lowerneck -11.7488 -4.52502 1.03028
upperneck -32.8707 -3.53812 9.85743
head -8.26536 -2.34967 3.3126
rclavicle -5.56597e-015 -2.8625e-014
rhumerus 60.0591 -24.0008 -27.659
rradius 133.944
rwrist -7.74102
rhand -3.56469 -47.9377
rfingers 7.12502
rthumb 22.1719 -436.686
lclavicle -5.56597e-015 -2.8625e-014
lhumerus -74.229 46.2837 13.6964
lradius 27.6577
lwrist -7.31467
lhand -34.6692 -34.5131
lfingers 7.12502
lthumb -7.82547 -4.67788
rfemur -1.92806 28.6541 27.0123
rtibia 0.217545
rfoot -14.979 -31.4779
rtoes 8.25168
lfemur 6.90714 -50.3818 -12.9311
ltibia -5.48975
lfoot -31.2613 56.575
ltoes 17.3983
743
root 0.738473 17.585 9.94486 11.5436 0.624668 -9.72005
lowerback 4.70037 3.77894 12.0472
upperback -12.9824 6.49195 -2.71279
thorax -15.8108 1.3102 -10.9587
lowerneck -12.031 -4.53119 0.99093
upperneck -32.8216 -3.55727 9.84864
head -8.20107 -2.34535 3.30808
rclavicle 3.18055e-014 4.45278e-014
rhumerus 60.1394 -24.14 -27.5812
rradius 133.914
rwrist -7.83604
rhand -3.92705 -47.9839
rfingers 7.12502
rthumb 21.824 -436.773
lclavicle 3.18055e-014 4.45278e-014
lhumerus -73.606 46.0414 14.7422
lradius 27.7518
lwrist -8.04573
lhand -36.4089 -31.8208
lfingers 7.12502
lthumb -9.50434 -2.05518
rfemur -1.83408 28.5575 27.0691
rtibia 0.189674
rfoot -14.9246 -31.4438
rtoes 7.94922
lfemur 6.96901 -50.2893 -12.9617
ltibia -5.49449
lfoot -30.8827 56.5174
ltoes 17.0806
